<svg width="1511" height="315" viewBox="0 0 1511 315" fill="none" xmlns="http://www.w3.org/2000/svg">
<path d="M-0.779326 86C-0.946079 112.333 -1.17906 156.4 -0.778854 270L1510.51 270.5L1511 39.5L1466.98 68L1373.43 100L1248.36 93.5L1151.81 144L982.227 115L875.172 151.5L802.135 184.5L630.546 107.5L495.476 58.5L357.405 93.5L208.328 144L123.285 107.5L70.7574 58.5L-0.779326 86Z" fill="#554F48"/>
<path d="M137 76.5L130 125H147.5L177 84L144 117L153 58.5L137 117V76.5Z" fill="#554F48"/>
<path d="M1393.33 57.7985L1426.26 94.0948L1437.4 80.6067L1424.6 31.747L1429.01 78.2072L1389.65 33.998L1424.55 83.6025L1393.33 57.7985Z" fill="#554F48"/>
<path d="M844.765 113.457L861.846 159.386L877.209 151.006L883.472 100.886L870.305 145.659L850.191 89.9931L864.16 149.011L844.765 113.457Z" fill="#554F48"/>
<path d="M517 71.5L537 21.5L533 20L530.5 12L530 3.5L533.5 0L537 2.5L542 0L545 4L552 2.5V6.5L549.5 15L542 20.5L537 21.5L527.5 53.5L534 48.5L543 49.5L535.5 54L526.5 56L521 71.5H517Z" fill="#554F48"/>
<path d="M517 71.5L537 21.5L533 20L530.5 12L530 3.5L533.5 0L537 2.5L542 0L545 4L552 2.5V6.5L549.5 15L542 20.5L537 21.5L527.5 53.5L534 48.5L543 49.5L535.5 54L526.5 56L521 71.5H517Z" fill="#554F48"/>
<path d="M125.276 114.945L124.689 61.0963L120.42 61.2357L115.057 54.7944L111.352 47.128L113.252 42.5575L117.441 43.5332L121.109 39.3148L125.408 41.8679L131.307 37.8109L132.833 41.5084L133.764 50.3193L128.93 58.2645L124.689 61.0963L128.116 94.3004L132.217 87.1989L140.917 84.6898L135.701 91.7107L128.145 96.9928L128.974 113.419L125.276 114.945Z" fill="#554F48"/>
<path d="M822.5 162L820 178L839.5 177.5L856 165V155L838.5 151L822.5 162Z" fill="#554F48"/>
<path d="M385.5 71.5L391.483 80.2753C391.94 80.9451 391.253 81.801 390.5 81.5L386.5 80.5L380 65.5L381 65L382.5 64V60.5L378 59.5H375.5L375 64L378 65.5L384 81.5L374 70V65.5H370L368 67.5L368.5 71L370 72L372.5 71L382.5 82.5L381.5 84V87.5L417.5 78.5L418.5 76.5V73.5L416 73L419 69L416.5 57L404 51.5L390 57L385.5 71.5Z" fill="#554F48"/>
<path d="M-1 241H1511V315H-1V241Z" fill="#554F48"/>
</svg>
