<svg width="170" height="170" viewBox="0 0 170 170" fill="none" xmlns="http://www.w3.org/2000/svg">
<path d="M70.8337 120.417V134.583C70.8337 138.341 69.3411 141.944 66.6843 144.601C64.0276 147.257 60.4242 148.75 56.667 148.75C52.9098 148.75 49.3064 147.257 46.6496 144.601C43.9929 141.944 42.5003 138.341 42.5003 134.583V35.4167C42.5003 31.6594 41.0078 28.0561 38.351 25.3993C35.6942 22.7426 32.0909 21.25 28.3337 21.25C24.5764 21.25 20.9731 22.7426 18.3163 25.3993C15.6595 28.0561 14.167 31.6594 14.167 35.4167V56.6667H35.417" stroke="black" stroke-width="2" stroke-linecap="round" stroke-linejoin="round"/>
<path d="M155.834 120.417V134.583C155.834 138.341 154.341 141.944 151.684 144.601C149.028 147.257 145.424 148.75 141.667 148.75H56.667" stroke="black" stroke-width="2" stroke-linecap="round" stroke-linejoin="round"/>
<path d="M134.583 120.417V35.4167C134.583 31.6594 133.09 28.0561 130.434 25.3993C127.777 22.7426 124.174 21.25 120.416 21.25H28.333" stroke="black" stroke-width="2" stroke-linecap="round" stroke-linejoin="round"/>
<path d="M155.833 120.417H70.833" stroke="black" stroke-width="2" stroke-linecap="round" stroke-linejoin="round"/>
</svg>
