<svg width="170" height="170" viewBox="0 0 170 170" fill="none" xmlns="http://www.w3.org/2000/svg">
<path d="M113.334 148.75V134.583C113.334 127.069 110.349 119.862 105.035 114.549C99.7215 109.235 92.5148 106.25 85.0003 106.25H42.5003C34.9859 106.25 27.7792 109.235 22.4656 114.549C17.1521 119.862 14.167 127.069 14.167 134.583V148.75" stroke="black" stroke-width="2" stroke-linecap="round" stroke-linejoin="round"/>
<path d="M113.334 148.75V134.583C113.334 127.069 110.349 119.862 105.035 114.549C99.7215 109.235 92.5148 106.25 85.0003 106.25H42.5003C34.9859 106.25 27.7792 109.235 22.4656 114.549C17.1521 119.862 14.167 127.069 14.167 134.583V148.75" stroke="black" stroke-width="2" stroke-linecap="round" stroke-linejoin="round"/>
<path d="M63.7503 77.9167C79.3984 77.9167 92.0837 65.2314 92.0837 49.5833C92.0837 33.9353 79.3984 21.25 63.7503 21.25C48.1023 21.25 35.417 33.9353 35.417 49.5833C35.417 65.2314 48.1023 77.9167 63.7503 77.9167Z" stroke="black" stroke-width="2" stroke-linecap="round" stroke-linejoin="round"/>
<path d="M63.7503 77.9167C79.3984 77.9167 92.0837 65.2314 92.0837 49.5833C92.0837 33.9353 79.3984 21.25 63.7503 21.25C48.1023 21.25 35.417 33.9353 35.417 49.5833C35.417 65.2314 48.1023 77.9167 63.7503 77.9167Z" stroke="black" stroke-width="2" stroke-linecap="round" stroke-linejoin="round"/>
<path d="M134.583 56.6667V99.1667" stroke="black" stroke-width="2" stroke-linecap="round" stroke-linejoin="round"/>
<path d="M134.583 56.6667V99.1667" stroke="black" stroke-width="2" stroke-linecap="round" stroke-linejoin="round"/>
<path d="M155.833 77.9167H113.333" stroke="black" stroke-width="2" stroke-linecap="round" stroke-linejoin="round"/>
<path d="M155.833 77.9167H113.333" stroke="black" stroke-width="2" stroke-linecap="round" stroke-linejoin="round"/>
</svg>
